PathFileType	4	(X/Y/Z)	path1_16_0-584.trc
DataRate	CameraRate	NumFrames	NumMarkers	Units	OrigDataRate	OrigDataStartFrame	OrigNumFrames
30	30	9	22	m	30	219	584
Frame#	Time	Hip			RHip			RKnee			RAnkle			RBigToe			RSmallToe			RHeel			LHip			LKnee			LAnkle			LBigToe			LSmallToe			LHeel			Neck			Head			Nose			RShoulder			RElbow			RWrist			LShoulder			LElbow			LWrist		
		X1	Y1	Z1	X2	Y2	Z2	X3	Y3	Z3	X4	Y4	Z4	X5	Y5	Z5	X6	Y6	Z6	X7	Y7	Z7	X8	Y8	Z8	X9	Y9	Z9	X10	Y10	Z10	X11	Y11	Z11	X12	Y12	Z12	X13	Y13	Z13	X14	Y14	Z14	X15	Y15	Z15	X16	Y16	Z16	X17	Y17	Z17	X18	Y18	Z18	X19	Y19	Z19	X20	Y20	Z20	X21	Y21	Z21	X22	Y22	Z22
220	7.333333333333333	2.516455835144603	0.8355891925751	0.5951382143912434	2.523401724943493	0.7972281481089778	0.516463851881158	2.5168963316588635	0.45816957683502557	0.5343856574046378	2.567950232726514	0.09851380105811652	0.5582584619162652	2.369557490790863	0.02625682506830987	0.5323665965362783	2.4024823812988303	0.021938972650564107	0.46843143437043716	2.61718991285935	0.03231604848849826	0.5597883321049317	2.5096858107761246	0.7954438412050817	0.6757120175056028	2.5147609498974837	0.43665058818493	0.6580858504261768	2.535158591803409	0.1155657506297915	0.6639551874782418	2.378264367237783	0.02222847765970018	0.6797454364536422	2.4103233237719492	0.02743416346387817	0.732875517631346	2.574724633528534	0.04480830460828597	0.6605257945188645	2.4845575197624292	1.4742137235475414	0.6118088327587671	2.458465011250765	1.7178673987827777	0.5634932480407077	2.3534848901267846	1.6126441356847607	0.5909662771130146	2.540683100366137	1.3686893642520956	0.44119266952667946	2.5556039807649342	1.0729230270874324	0.4284594841083744	2.5039265329596128	0.8479157475770044	0.3910787287206146	2.474833284114298	1.3487137597046892	0.7811040536664347	2.515165453451873	1.069751772702834	0.8066996413738764	2.4984852081436846	0.8364615032182665	0.8157539747885878
221	7.366666666666666	2.5168274287602195	0.8353882935343903	0.5947956957218815	2.523558634746122	0.7973263030842832	0.5160251405621253	2.521612582991404	0.45585474610167215	0.5409381804914899	2.5681646509314158	0.09853620401551849	0.5584908818027771	2.369438852772486	0.026184909600173324	0.5327779162583317	2.4021897487090498	0.02148780353001808	0.4683081105480199	2.617910327048875	0.03186498678147834	0.5606249877042603	2.509641719379892	0.7957442860202679	0.6752656569657365	2.5146304243329713	0.43642976982196807	0.6580710846594867	2.534101590483215	0.11687653416845309	0.664535890455388	2.378774216575028	0.021666468930991833	0.6793129947393914	2.4085654452732257	0.028327862680088745	0.7324357412235696	2.5734297275185334	0.045406887376495224	0.6603721044989108	2.484463827547773	1.4740486379694868	0.6111772607270948	2.4581503222826147	1.7180376264419308	0.5635404605291506	2.35320588815388	1.6126411002099537	0.5903214786097724	2.540185625513669	1.3688920366319497	0.4406702740643294	2.5552320666798347	1.0731031402420288	0.4284787503755345	2.5038400040563964	0.8473838595628659	0.3909028194839825	2.4749197732317043	1.3488216844069796	0.7810001803119361	2.515317269529472	1.0697028808305427	0.8067183744587918	2.4987118187608557	0.8359801837856263	0.8158304078054093
222	7.4	2.517082439123749	0.8352932420550664	0.5946202815729437	2.52372420979672	0.7974703883530859	0.5158282430600991	2.524527850304004	0.45447402676915827	0.5450113762610217	2.5683012734752357	0.09831414204375603	0.5586475527838335	2.369161987806054	0.025541569183965322	0.5330905594678235	2.4020890410386695	0.021091935956344225	0.4682254162112912	2.6186430074482128	0.03132747770716674	0.5613792595739929	2.509577098361874	0.7960247428212843	0.6748603132219797	2.5146752879421914	0.4363343251743269	0.658072958245627	2.5338711473369644	0.11732057561378133	0.6648744775577375	2.37916271971644	0.020981735587697132	0.6789118320304316	2.407218640665399	0.028801894922223747	0.7321005805304863	2.5730036411931185	0.045629159631864744	0.6604656480509346	2.4843832831162014	1.4739036387263	0.6108245363697259	2.457884092655114	1.7181900278064852	0.5633332577774882	2.352804878575571	1.612584562885086	0.5892355267725966	2.539910932875354	1.3689682599753306	0.44034915426536864	2.5549452719114853	1.0731158702895445	0.42842707276855185	2.5037367309845493	0.8471387800245458	0.39074331800936046	2.4749506949880686	1.3489898335124293	0.7810213821833394	2.5152960113788536	1.0697604335090458	0.806682065137288	2.4989023123473326	0.8356973504916612	0.8159063010839107
223	7.433333333333334	2.5171459162674523	0.8353381867461255	0.5946136376601191	2.523795988926035	0.7976626853763107	0.5158869843554148	2.5244405412130355	0.45461068919438336	0.5449772712702944	2.5683776486294883	0.09790993453316797	0.5586404582143937	2.368688939011772	0.024246830236154204	0.5329996966268693	2.4021076020428516	0.020807509611692237	0.4681076710932413	2.6192032058323638	0.030895008202704126	0.5618094432677492	2.5094588453352227	0.7962382895791681	0.6745162679861536	2.514739808678642	0.4363034534405436	0.6580745749290349	2.5341367266278136	0.11723567074721074	0.6650260044017929	2.379338427975748	0.020321496305610087	0.6785067197998256	2.406680759449305	0.028838165866163935	0.7320026368611652	2.573213923916942	0.04550730518985333	0.6606212571772011	2.484254110019195	1.4738392842460457	0.6107504577496656	2.457684418285949	1.7182848968934634	0.5629917643841486	2.3523650574953017	1.612498520446995	0.5880830929975578	2.539870596064029	1.3688868673943237	0.440255201710252	2.5547955671345055	1.0729552894964032	0.42837209916790137	2.503578609209983	0.8471316466140629	0.3905679361008727	2.4748681330750273	1.34920413226453	0.7810858591024814	2.5151018051854117	1.0699118750645475	0.80658926381945	2.4990179112327042	0.8356505201078092	0.8159495454430149
224	7.466666666666667	2.5170254107932037	0.835521529255681	0.5947508526702121	2.523675228657451	0.7978511506196432	0.5161149852997897	2.520844602021295	0.4564268568815955	0.5402395948525883	2.5684054757291364	0.09742027973559331	0.5584337080551774	2.3680051013045813	0.022377173766055528	0.5322388596464713	2.402176543805501	0.020654592260435194	0.46791669786512524	2.6194216296341284	0.030703759689007452	0.5618272503910483	2.5093022269060525	0.7963350631634035	0.6742392604013724	2.514803439286044	0.43626742192272894	0.6579993072495539	2.534671285970617	0.11687423226057897	0.6650074479733822	2.3793750172412924	0.019821045045806725	0.6781514597900281	2.406920454538718	0.02856015590672511	0.7321237772171145	2.573850277459643	0.04514172102724555	0.6606973853806234	2.4840489291606196	1.4738605298517236	0.6108866755715904	2.4575613458093586	1.7183122392352428	0.5624804407225834	2.3519743318957502	1.612437492139162	0.5872026768677447	2.539993180223102	1.368655297347824	0.44035152765688534	2.554767275704493	1.0726723075802451	0.42835368028952053	2.503336555147064	0.8472361484935687	0.39036127225072953	2.4746361752203594	1.3494317863798353	0.7811235110885162	2.514760422681979	1.0701045000353888	0.8064595023592447	2.499062080241909	0.8358288608357393	0.8159428414224831
225	7.5	2.5167661100821554	0.8357931847235543	0.5949478836467086	2.5233485429677773	0.7979628878437328	0.5163490451897816	2.5148254746230716	0.45930045619474646	0.5323105873671258	2.5683999542375044	0.09696083037000047	0.5580784686420235	2.367188676156146	0.020202398754287008	0.5307744019821684	2.402236344618254	0.020651513532200554	0.46766150066311657	2.61919293955415	0.03080498916382139	0.5614676269572584	2.509089590872324	0.7962718472139931	0.6740060506183161	2.5149024151727644	0.43617172498464424	0.6577711382375876	2.5353140109522316	0.11639659385781241	0.6648256617619873	2.3794457846800947	0.019652892528718078	0.6780275460162433	2.4079236065642804	0.028028641559381107	0.732442666642693	2.574691020252021	0.044694416288537465	0.6606599286668882	2.4837737931639743	1.4739328314972713	0.6111405168164629	2.4575251725812133	1.718281980882852	0.5617545500262169	2.3516869348114655	1.6124449802290042	0.5867543808467094	2.540145564199444	1.3683510782502484	0.44053271087123747	2.5547856795984307	1.072382021420162	0.42837345742079397	2.502997689059112	0.8473357116221782	0.3901274497601086	2.474278762892632	1.3496090799825562	0.7811112201667814	2.514312826881496	1.070269722459769	0.8063005505341053	2.4990758807529443	0.836161469425746	0.8158823742202846
226	7.533333333333333	2.516414349627728	0.8360682464323148	0.595063478871579	2.5229066455927076	0.7979570974085509	0.5164616512810154	2.50852789124496	0.46219663851869447	0.5240528206039959	2.56839161079776	0.09662837335160974	0.5577170853266463	2.366467508737363	0.018178171990868474	0.5289504975836509	2.4022576437433925	0.020795100405305772	0.4674120884920916	2.6185038933463125	0.03117801051802862	0.5608030288967938	2.508785007544968	0.7960586258572327	0.6737993185604082	2.51503693105924	0.4360226315411817	0.6573845604128182	2.535928886715426	0.11593316963363928	0.6645227848242881	2.3796584691071545	0.019907285795334514	0.6782440875704695	2.4097038015321743	0.027272656387764455	0.7329441956153048	2.5754874933731253	0.0443484709336591	0.6605625182422404	2.48345495086049	1.4740159917299924	0.6114127326231018	2.4575721124835908	1.7182164090991092	0.5609237622469476	2.351514583388609	1.612497621377334	0.5866794646734879	2.5402025814996407	1.3680993057805866	0.44066030025017616	2.5547645312799485	1.0722070735384024	0.4283816206721936	2.5025904437620365	0.8473603696040938	0.3898989583554266	2.4738915159006583	1.3496715469580178	0.781060060425034	2.513849991726829	1.0703671029746786	0.8061223907947119	2.4991060430296512	0.8365434965713373	0.8157654298475228
227	7.566666666666666	2.516011660502736	0.8362772553224015	0.5949687038851212	2.522473645898385	0.7978470890168372	0.5164358498180632	2.503704194105681	0.46437775713090745	0.5177879001037362	2.5684094052245787	0.09647419291870483	0.5575059062918462	2.36610095605191	0.01673945749562288	0.5273587371613178	2.402240440466755	0.021019909312076552	0.4672673349427614	2.617415580598567	0.03176341427735962	0.5598811720999876	2.508409759031285	0.7957707102071588	0.6736420866654194	2.5151639722239447	0.4358666151501551	0.6569090195920544	2.5364449201299886	0.11557459740564624	0.664182919099295	2.379984556474928	0.020429214702302266	0.6786693542543482	2.4118275151210233	0.026489681896851754	0.7335033730234318	2.576063997111371	0.044220747940289004	0.6604621765037194	2.4831365058632313	1.4740897534478652	0.6116222252020173	2.4576748650270837	1.7181378847135431	0.5602693050851457	2.3514519315377247	1.6125223297773938	0.586854805131111	2.5401312837590764	1.3680001942344897	0.44063923334013727	2.554670600268208	1.072200796028201	0.42830350575454135	2.5021900458037907	0.847254717128442	0.389712662534059	2.4736144372072193	1.3495951682061496	0.780990405229156	2.513505530993872	1.0703879415844193	0.8059496072924484	2.499171670322653	0.8368842690082654	0.815569454560488
228	7.6	2.515611671508497	0.8364045881474071	0.5946340133902213	2.522125134386018	0.7976980992726534	0.5163399802256858	2.501077023783033	0.4656020811586571	0.5144714975366348	2.568461070324644	0.09649002985076609	0.5575387561095912	2.3661563847120846	0.016024536019713844	0.5264601339795109	2.4022085990359336	0.02122956155087421	0.46728026399853184	2.6160714290982074	0.032471802702404406	0.5587599807942981	2.5080499199932933	0.7955442887846313	0.6735831082815851	2.5152334893398	0.4357798302542312	0.6564019097220003	2.5368879107679794	0.11532125299229597	0.6638847320111493	2.3803301994688377	0.020942919200561447	0.6790806789314189	2.4136285439168623	0.025938535492995428	0.7339503371915859	2.5764210644166363	0.04429810564482157	0.6603444247157217	2.482878841833995	1.4741503767432327	0.6117411734417609	2.457787560006373	1.7180876788911097	0.5601209949146285	2.351494093556967	1.6124599243252853	0.5872604173389322	2.5400044620906015	1.3680598157918202	0.4404707033131228	2.5545429873706382	1.0723065123206272	0.42810542645827276	2.5018776120552704	0.8469645425983074	0.38957498388681944	2.4735761390584745	1.3494041831060792	0.7809170204924709	2.5133687754693637	1.0703289884273126	0.8058070601830973	2.499254636489983	0.8371355735387599	0.8152577145114374
